<svg width="36" height="34" viewBox="0 0 36 34" fill="none" xmlns="http://www.w3.org/2000/svg">
<g filter="url(#filter0_d)">
<path d="M7 0L14 8H0L7 0Z" transform="translate(9.5 3)" fill="#D5D5D5" stroke="black" stroke-linejoin="round"/>
<path d="M7 0L14 12H0L7 0Z" transform="translate(23.5 23) rotate(180)" fill="#C4C4C4" stroke="black" stroke-linejoin="round"/>
<path d="M7 0L10.5 10L0 12L7 0Z" transform="translate(16.5 11)" fill="#AFAFAF" stroke="black" stroke-linejoin="round"/>
<path d="M7 0L10.5 10L0 12L7 0Z" transform="translate(16.5 11) scale(-1 1)" fill="#AFAFAF" stroke="black" stroke-linejoin="round"/>
<path d="M0 0L11 6L7 8L0 0Z" transform="translate(16.5 3)" fill="#C4C4C4" stroke="black" stroke-linejoin="round"/>
<path d="M10.5 0L3.5 8L0 6L10.5 0Z" transform="translate(6 3)" fill="#C4C4C4" stroke="black" stroke-linejoin="round"/>
<path d="M0 2L4 0L3.5 12L0 2Z" transform="translate(23.5 9)" fill="#D5D5D5" stroke="black" stroke-linejoin="round"/>
<path d="M0 0L3.5 2L0 12V0Z" transform="translate(6 9)" fill="#D5D5D5" stroke="black" stroke-linejoin="round"/>
<path d="M10.5 2V6L0 0L10.5 2Z" transform="translate(6 21)" fill="#C4C4C4" stroke="black" stroke-linejoin="round"/>
<path d="M10.5 2V6L0 0L10.5 2Z" transform="translate(27 21) scale(-1 1)" fill="#D5D5D5" stroke="black" stroke-linejoin="round"/>
<path d="M2.09961 4H0.236328V3.74023L1.2207 2.64648C1.36654 2.48112 1.4668 2.34701 1.52148 2.24414C1.57747 2.13997 1.60547 2.03255 1.60547 1.92188C1.60547 1.77344 1.56055 1.65169 1.4707 1.55664C1.38086 1.46159 1.26107 1.41406 1.11133 1.41406C0.931641 1.41406 0.791667 1.46549 0.691406 1.56836C0.592448 1.66992 0.542969 1.81185 0.542969 1.99414H0.181641C0.181641 1.73242 0.265625 1.52083 0.433594 1.35938C0.602865 1.19792 0.828776 1.11719 1.11133 1.11719C1.37565 1.11719 1.58464 1.18685 1.73828 1.32617C1.89193 1.46419 1.96875 1.64844 1.96875 1.87891C1.96875 2.15885 1.79036 2.49219 1.43359 2.87891L0.671875 3.70508H2.09961V4ZM4.26562 2.78711C4.26562 3.21029 4.19336 3.52474 4.04883 3.73047C3.9043 3.9362 3.67839 4.03906 3.37109 4.03906C3.06771 4.03906 2.8431 3.9388 2.69727 3.73828C2.55143 3.53646 2.47591 3.23568 2.4707 2.83594V2.35352C2.4707 1.93555 2.54297 1.625 2.6875 1.42188C2.83203 1.21875 3.05859 1.11719 3.36719 1.11719C3.67318 1.11719 3.89844 1.21549 4.04297 1.41211C4.1875 1.60742 4.26172 1.90951 4.26562 2.31836V2.78711ZM3.9043 2.29297C3.9043 1.98698 3.86133 1.76432 3.77539 1.625C3.68945 1.48438 3.55339 1.41406 3.36719 1.41406C3.18229 1.41406 3.04753 1.48372 2.96289 1.62305C2.87826 1.76237 2.83464 1.97656 2.83203 2.26562V2.84375C2.83203 3.15104 2.8763 3.37826 2.96484 3.52539C3.05469 3.67122 3.1901 3.74414 3.37109 3.74414C3.54948 3.74414 3.68164 3.67513 3.76758 3.53711C3.85482 3.39909 3.90039 3.18164 3.9043 2.88477V2.29297Z" transform="translate(14 13)" fill="white"/>
</g>
<defs>
<filter id="filter0_d" x="0.5" y="0.499969" width="34.9644" height="33" filterUnits="userSpaceOnUse" color-interpolation-filters="sRGB">
<feFlood flood-opacity="0" result="BackgroundImageFix"/>
<feColorMatrix in="SourceAlpha" type="matrix" values="0 0 0 0 0 0 0 0 0 0 0 0 0 0 0 0 0 0 255 0"/>
<feOffset dy="2"/>
<feGaussianBlur stdDeviation="2"/>
<feColorMatrix type="matrix" values="0 0 0 0 0.5131 0 0 0 0 0 0 0 0 0 0 0 0 0 0.78 0"/>
<feBlend mode="normal" in2="BackgroundImageFix" result="effect1_dropShadow"/>
<feBlend mode="normal" in="SourceGraphic" in2="effect1_dropShadow" result="shape"/>
</filter>
</defs>
</svg>
