<svg width="340" height="199" viewBox="0 0 340 199" fill="none" xmlns="http://www.w3.org/2000/svg">
<g filter="url(#filter0_di)">
<path d="M78.7698 109.476L79.3533 111.805L79.9367 108.893L80.5202 105.982L81.6872 103.652L84.0211 100.741L85.7715 98.9939L87.522 97.247L88.6889 94.9177L91.0229 93.1707L93.9402 91.4238L96.2742 90.2591L98.0246 89.6768L99.775 90.8415L100.942 90.2591L102.109 89.6768L103.859 87.9299L105.61 88.5122L107.36 89.6768L109.111 90.2591H110.861L112.612 89.6768L114.362 88.5122L114.946 90.2591L115.529 93.1707L116.696 95.5L118.446 94.9177L119.03 96.0823L120.197 97.247L121.364 98.4116L122.531 98.9939L124.865 98.4116L125.448 99.5762L124.865 101.323L126.032 102.488L128.949 103.652L130.699 105.399H133.033L133.617 106.564L135.367 108.893L137.118 108.311L138.868 107.146L141.202 106.564V108.311L140.619 109.476L140.035 110.64L141.786 112.97L144.703 114.716L148.787 115.299L149.954 117.046L151.705 119.375L153.455 119.957L156.373 122.287L160.457 125.198L165.125 129.274L168.042 129.857H170.376L172.127 131.021L173.877 132.768L177.378 133.933L180.295 134.515L184.38 136.262L184.963 138.009V140.921V143.25L183.213 146.744L180.295 153.149L176.794 160.72L171.543 169.454L168.626 175.86L162.791 181.101L155.206 185.759L148.204 188.671L141.786 189.253L138.285 186.924L136.534 184.595L137.701 188.088L141.202 191H147.037L153.455 190.418L158.707 188.671L164.541 185.759L169.793 181.683L175.044 177.607L177.378 174.695L181.462 170.037L184.963 164.796C185.741 163.825 187.297 161.768 187.297 161.302C187.297 160.836 188.464 158.002 189.047 156.643L191.381 153.732H191.965L193.132 154.896L193.715 153.149L195.466 150.82L196.633 150.238L197.8 151.402L196.633 153.149L196.049 154.896L197.216 154.314L199.55 149.655L201.301 146.162L202.467 141.503L203.634 138.009L205.968 136.262L211.803 134.515L215.304 132.186L219.388 130.439L223.473 128.11L225.807 124.616L229.308 122.287L233.392 118.793L235.726 116.463L237.476 112.97L238.643 109.476L239.227 105.982L241.561 102.488L244.478 99.5762L249.146 96.6646H252.063V95.5V94.9177L253.23 95.5V94.3354V93.1707V92.0061L254.397 92.5884H256.148L256.731 91.4238L257.898 90.8415L258.482 91.4238L260.815 90.8415L262.566 89.6768L263.149 87.9299L264.9 86.1829L267.817 85.0183L270.735 84.436H272.485V83.2713L273.652 82.689L274.819 83.2713L275.402 84.436H277.153L282.988 85.0183L287.072 86.7652L289.406 89.6768L290.573 92.0061L291.74 94.9177L292.323 95.5L294.074 96.6646L295.241 98.4116L296.408 100.741L296.991 98.4116L298.158 96.6646L299.909 93.753L302.243 92.0061L306.91 90.8415L308.661 91.4238L310.411 93.1707L310.995 94.9177V97.247L312.162 98.4116L312.745 97.247L313.329 94.9177L313.912 92.5884L315.079 90.8415L316.246 89.0945L317.996 88.5122L319.747 89.0945L320.914 89.6768L321.497 88.5122L323.248 87.3476L325.582 89.0945L327.332 91.4238V94.9177L328.499 97.247V98.9939L329.083 100.159L330.833 98.4116L331.417 94.9177L332 88.5122L331.417 83.8537L329.666 77.4482L327.332 72.7896C326.749 71.0427 325.465 67.4323 324.998 66.9665C324.531 66.5006 323.248 64.0549 322.664 62.8902L319.163 57.0671L313.912 50.0793L309.244 44.8384L303.993 39.5976L298.742 34.939L293.49 30.8628L287.656 26.7866L283.571 22.7104L277.736 18.6341L273.069 15.1402L267.234 11.064L261.399 7.57012L258.482 5.82317L256.731 2.91159L254.397 0.582317L252.647 0H251.48L250.313 1.16463L250.896 2.32927L251.48 3.4939L250.896 5.24085L247.979 7.57012L247.395 9.89939L243.311 16.3049L239.227 24.4573L235.726 31.4451L229.891 37.8506L224.056 43.6738L219.388 49.497L213.554 55.3201L208.886 59.3963L204.218 62.8902L200.134 66.3841L194.882 69.2957L191.965 66.9665L187.88 62.3079L185.547 58.814L184.38 55.9024L183.796 51.8262L184.38 49.497L185.547 47.1677L187.297 46.003L188.464 45.4207L189.631 47.1677L190.798 44.8384L191.381 41.9268L191.965 40.1799L193.132 37.8506L194.299 36.686L196.049 34.939L197.8 33.7744L200.717 32.0274L201.301 30.8628L200.717 29.6982L200.134 27.9512V27.3689L199.55 26.7866L198.967 27.3689L196.633 27.9512L194.882 26.7866L194.299 25.622L193.132 25.0396L191.381 24.4573H189.631L188.464 25.0396L186.714 24.4573L183.796 25.0396L180.879 26.7866L178.545 27.9512L176.794 29.6982L174.46 30.8628L172.127 31.4451L170.96 32.6098V33.7744H172.71L175.044 34.3567L176.211 34.939L175.627 35.5213L175.044 36.1037V36.686H176.794L177.378 37.2683L176.794 38.4329L175.627 41.3445L174.46 44.8384V48.3323V51.8262V54.7378V57.0671V60.561V62.8902V64.6372L175.044 66.9665L175.627 68.7134V70.4604H174.46L172.71 69.2957L169.209 68.7134L166.875 66.3841C166.292 65.9959 165.008 65.1031 164.541 64.6372C164.075 64.1713 161.235 63.2785 159.873 62.8902L157.54 59.9787L156.956 57.0671L155.206 54.7378L153.455 52.4085L150.538 48.9146L148.204 45.4207L147.037 43.0915L145.87 40.1799L144.703 37.8506L143.536 34.939L142.953 32.6098L142.369 30.2805L141.202 28.5335L140.035 27.9512V26.7866L138.868 26.2043L137.701 23.875L136.534 22.128V19.7988L134.2 18.0518L132.45 16.3049L131.283 14.5579V12.2287L129.533 9.89939L125.448 8.15244L121.364 6.9878L118.446 5.82317H115.529L113.195 6.40549L111.445 7.57012L110.861 8.15244L108.527 9.89939L106.777 12.2287L106.193 13.9756V15.1402L101.525 14.5579L93.3568 13.9756H85.7715L79.9367 13.3933L74.6854 13.9756L70.6011 14.5579L62.4323 15.1402H56.5975L51.3462 15.7226L47.2619 16.3049L43.761 16.8872H40.8436L36.1757 16.3049L32.6749 16.8872L30.3409 17.4695L26.8401 18.6341L25.0896 20.3811L22.7557 22.128L21.0053 23.875L20.4218 25.622L21.0053 26.7866L22.1722 25.622L23.9227 23.2927L25.0896 22.7104H27.4236L30.9244 21.5457L33.2583 19.7988L35.0088 18.6341L36.1757 20.3811L34.4253 23.875L33.2583 26.7866L32.0914 29.6982L29.7575 31.4451L27.4236 34.3567L25.0896 37.2683L23.3392 40.1799L21.5888 41.3445L20.4218 44.8384L18.6714 46.5854L16.3374 50.0793L8.7522 56.4848L2.33392 64.0549L0 68.7134L5.8348 67.5488L8.7522 65.2195L11.0861 63.4726L14.587 61.1433L18.6714 58.814L23.9227 56.4848L26.2566 55.9024L28.007 54.7378H29.7575H34.4253H36.7592L37.3427 55.9024L39.6766 55.3201L42.594 54.7378L44.9279 55.3201L46.6784 56.4848L47.8453 57.0671L49.0123 57.6494H50.7627L51.3462 58.2317L52.5132 59.3963L53.6801 59.9787H54.8471L54.2636 60.561L54.8471 61.7256L56.0141 62.8902L56.5975 64.6372L57.181 65.8018V66.9665L57.7645 68.1311L58.9315 68.7134V69.878L58.348 70.4604V71.625V72.2073V72.7896L57.7645 73.372V73.9543V74.5366L58.348 75.1189V76.2835L57.7645 76.8659L57.181 77.4482L56.5975 78.6128L56.0141 80.3598L55.4306 81.5244L54.8471 83.2713L53.6801 84.436L52.5132 86.1829L51.3462 87.3476L50.7627 88.5122L51.3462 89.0945L51.9297 90.2591L51.3462 90.8415L50.7627 91.4238L50.1793 92.5884L49.5958 93.753L49.0123 94.9177H49.5958L50.7627 94.3354L51.9297 92.5884L53.0967 91.4238H54.8471L56.5975 90.2591L57.7645 89.0945L58.9315 87.9299L60.6819 86.7652L63.0158 86.1829L64.7663 85.6006L66.5167 85.0183L67.6837 84.436H69.4341L71.1845 83.8537L72.3515 83.2713H74.1019H75.2689L76.4359 83.8537L77.6028 84.436L78.1863 83.8537L78.7698 83.2713L79.3533 82.689H80.5202L81.1037 83.2713V84.436V85.6006L81.6872 86.1829L82.2707 87.3476L82.8541 88.5122L83.4376 89.6768L82.8541 91.4238L82.2707 93.1707L81.6872 96.0823L80.5202 98.9939L79.3533 101.323L78.7698 103.652V106.564V109.476Z" transform="translate(4)" fill="#4D243D"/>
</g>
<defs>
<filter id="filter0_di" x="0" y="0" width="341" height="199" filterUnits="userSpaceOnUse" color-interpolation-filters="sRGB">
<feFlood flood-opacity="0" result="BackgroundImageFix"/>
<feColorMatrix in="SourceAlpha" type="matrix" values="0 0 0 0 0 0 0 0 0 0 0 0 0 0 0 0 0 0 255 0"/>
<feOffset dy="4"/>
<feGaussianBlur stdDeviation="2"/>
<feColorMatrix type="matrix" values="0 0 0 0 0 0 0 0 0 0 0 0 0 0 0 0 0 0 0.25 0"/>
<feBlend mode="normal" in2="BackgroundImageFix" result="effect1_dropShadow"/>
<feBlend mode="normal" in="SourceGraphic" in2="effect1_dropShadow" result="shape"/>
<feColorMatrix in="SourceAlpha" type="matrix" values="0 0 0 0 0 0 0 0 0 0 0 0 0 0 0 0 0 0 255 0" result="hardAlpha"/>
<feOffset dx="5" dy="12"/>
<feGaussianBlur stdDeviation="4"/>
<feComposite in2="hardAlpha" operator="arithmetic" k2="-1" k3="1"/>
<feColorMatrix type="matrix" values="0 0 0 0 0.40393 0 0 0 0 0.0141111 0 0 0 0 0.0141111 0 0 0 1 0"/>
<feBlend mode="normal" in2="shape" result="effect2_innerShadow"/>
</filter>
</defs>
</svg>
