<svg width="272" height="51" viewBox="0 0 272 51" fill="none" xmlns="http://www.w3.org/2000/svg">
<rect width="262" height="41" transform="translate(5 5)" fill="#BB957D" fill-opacity="0.75"/>
<rect x="-2.5" y="-2.5" width="267" height="46" transform="translate(5 5)" stroke="#BB957D" stroke-opacity="0.75" stroke-width="5" stroke-linejoin="round"/>
<path d="M7.69776 0C4.19776 1.5 -2.10224 6 0.697759 12C4.19776 19.5 56.1978 21 108.698 16.5C161.198 12 258.198 -2.5 215.198 8.5" transform="translate(31.8022 27)" stroke="black"/>
<path d="M0 0C1.83333 1.33333 4.4 5 0 9" transform="translate(235.5 29)" stroke="black"/>
<path d="M0 0C1.83333 1.33333 4.4 5 0 9" transform="translate(37.3129 32.9558) rotate(102.551)" stroke="black"/>
<path d="M0 0C1.83333 1.33333 4.4 5 0 9" transform="translate(36.3129 35.9558) rotate(102.551)" stroke="black"/>
<path d="M0 0C1.83333 1.33333 4.4 5 0 9" transform="translate(241 28)" stroke="black"/>
</svg>
